<svg id="icon_report28" xmlns="http://www.w3.org/2000/svg" width="28" height="28" viewBox="0 0 28 28">
    <defs>
        <clipPath id="clip-path">
            <path id="Rectangle_2883" data-name="Rectangle 2883" style="fill:none" d="M0 0h28v28H0z"/>
        </clipPath>
        <style>
            
        </style>
    </defs>
    <g id="Group_2335" data-name="Group 2335" style="clip-path:url(#clip-path)">
        <g id="Group_2334" data-name="Group 2334">
            <g id="Group_2333" data-name="Group 2333" style="clip-path:url(#clip-path)">
                <path id="Path_3231" data-name="Path 3231" d="M8.69 24.7a1.01 1.01 0 0 1-.435-.1 1 1 0 0 1-.565-.9v-3.136a3.68 3.68 0 0 1-3.336-3.659V7.4A3.679 3.679 0 0 1 8.03 3.724h12.192A3.678 3.678 0 0 1 23.9 7.4v9.506a3.678 3.678 0 0 1-3.675 3.674h-5.987l-4.927 3.9a1 1 0 0 1-.621.216M8.03 5.724A1.677 1.677 0 0 0 6.354 7.4v9.506a1.677 1.677 0 0 0 1.676 1.673h.66a1 1 0 0 1 1 1v2.049l3.578-2.828a1 1 0 0 1 .621-.216h6.333a1.676 1.676 0 0 0 1.678-1.679V7.4a1.676 1.676 0 0 0-1.675-1.675z" style="fill:#8a69f2"/>
                <path id="Path_3232" data-name="Path 3232" d="M14.355 13.586a1 1 0 0 1-1-1V9.227a1 1 0 0 1 2 0v3.359a1 1 0 0 1-1 1" style="fill:#8a69f2"/>
                <path id="Path_3233" data-name="Path 3233" d="M14.35 16.58a1 1 0 0 1-.38-.08 1.076 1.076 0 0 1-.54-.54 1.03 1.03 0 0 1 .22-1.09 1.034 1.034 0 0 1 1.41 0 1 1 0 0 1 .29.71.98.98 0 0 1-.29.7.865.865 0 0 1-.32.221 1.007 1.007 0 0 1-.39.08" style="fill:#8a69f2"/>
            </g>
        </g>
    </g>
</svg>
